<svg width="32" height="32" viewBox="0 0 32 32" fill="none" xmlns="http://www.w3.org/2000/svg">
<path d="M8.82875 9.6416L7.77595 12.8H12.8V8H11.1072C10.6031 7.99971 10.1118 8.15813 9.70279 8.45279C9.29384 8.74744 8.98803 9.16338 8.82875 9.6416ZM7.24475 14.4L7.23835 14.416L6.81275 14.5216L6.61755 14.5696C6.09815 14.6995 5.6371 14.9994 5.30775 15.4215C4.9784 15.8437 4.79965 16.3638 4.79995 16.8992V19.6C4.79995 19.856 4.87995 20.096 5.01915 20.2912C5.30649 19.463 5.85787 18.752 6.58854 18.2676C7.31922 17.7832 8.18876 17.5521 9.06352 17.6099C9.93828 17.6677 10.7699 18.0111 11.4304 18.5875C12.091 19.1638 12.5441 19.9412 12.72 20.8H19.28C19.4547 19.9403 19.9073 19.1618 20.5679 18.5846C21.2286 18.0073 22.0607 17.6633 22.9361 17.6054C23.8115 17.5476 24.6816 17.7792 25.4125 18.2645C26.1434 18.7498 26.6944 19.4619 26.9808 20.2912C27.1237 20.0891 27.2003 19.8476 27.2 19.6V17.6592C27.2001 17.1301 27.0255 16.6158 26.7031 16.1962C26.3808 15.7766 25.9288 15.4754 25.4176 15.3392L21.896 14.4H7.24315H7.24475ZM20.5968 12.8L18.6144 9.2352C18.4068 8.86121 18.103 8.5495 17.7345 8.33233C17.366 8.11516 16.9461 8.00043 16.5184 8H14.4V12.8H20.5968ZM28.8 19.6C28.8 20.1368 28.6457 20.6623 28.3555 21.1139C28.0653 21.5655 27.6514 21.9242 27.1632 22.1472C27.035 23.0833 26.5797 23.9439 25.8777 24.5763C25.1758 25.2088 24.2727 25.5724 23.3283 25.6027C22.384 25.633 21.4594 25.328 20.7184 24.7418C19.9774 24.1556 19.4678 23.326 19.28 22.4H12.72C12.5321 23.326 12.0225 24.1556 11.2815 24.7418C10.5405 25.328 9.61595 25.633 8.67159 25.6027C7.72724 25.5724 6.82409 25.2088 6.12217 24.5763C5.42025 23.9439 4.96488 23.0833 4.83675 22.1472C4.34846 21.9242 3.93456 21.5655 3.64436 21.1139C3.35417 20.6623 3.1999 20.1368 3.19995 19.6V16.8992C3.19992 16.0488 3.47088 15.2206 3.97351 14.5347C4.47615 13.8488 5.18429 13.3409 5.99515 13.0848L7.31195 9.1344C7.57758 8.33801 8.08705 7.64537 8.76819 7.15462C9.44934 6.66386 10.2676 6.39986 11.1072 6.4H16.5168C17.2303 6.39985 17.9309 6.59055 18.5458 6.95235C19.1608 7.31414 19.6679 7.83385 20.0144 8.4576L22.4816 12.9008L25.8304 13.7936C26.6821 14.0207 27.435 14.5228 27.972 15.2218C28.509 15.9208 28.8001 16.7777 28.8 17.6592V19.6ZM8.79995 19.2C8.16343 19.2 7.55298 19.4529 7.10289 19.9029C6.65281 20.353 6.39995 20.9635 6.39995 21.6C6.39995 22.2365 6.65281 22.847 7.10289 23.2971C7.55298 23.7471 8.16343 24 8.79995 24C9.43647 24 10.0469 23.7471 10.497 23.2971C10.9471 22.847 11.2 22.2365 11.2 21.6C11.2 20.9635 10.9471 20.353 10.497 19.9029C10.0469 19.4529 9.43647 19.2 8.79995 19.2ZM23.2 19.2C22.5634 19.2 21.953 19.4529 21.5029 19.9029C21.0528 20.353 20.8 20.9635 20.8 21.6C20.8 22.2365 21.0528 22.847 21.5029 23.2971C21.953 23.7471 22.5634 24 23.2 24C23.8365 24 24.4469 23.7471 24.897 23.2971C25.3471 22.847 25.6 22.2365 25.6 21.6C25.6 20.9635 25.3471 20.353 24.897 19.9029C24.4469 19.4529 23.8365 19.2 23.2 19.2Z" fill="#1169B0"/>
</svg>
