<svg width="20" height="15" viewBox="0 0 20 15" fill="none" xmlns="http://www.w3.org/2000/svg">
<path d="M11.07 6.41C11.6774 5.56126 12.0041 4.54371 12.0041 3.5C12.0041 2.45629 11.6774 1.43874 11.07 0.589999C11.6385 0.201955 12.3117 -0.00383354 13 -8.2676e-07C13.9283 -8.2676e-07 14.8185 0.368748 15.4749 1.02513C16.1313 1.6815 16.5 2.57174 16.5 3.5C16.5 4.42826 16.1313 5.3185 15.4749 5.97487C14.8185 6.63125 13.9283 7 13 7C12.3117 7.00383 11.6385 6.79804 11.07 6.41ZM3.5 3.5C3.5 2.80776 3.70527 2.13108 4.08986 1.5555C4.47444 0.979931 5.02107 0.531328 5.66061 0.266421C6.30015 0.00151426 7.00388 -0.0677974 7.68282 0.0672509C8.36175 0.202299 8.98539 0.535642 9.47487 1.02513C9.96436 1.51461 10.2977 2.13825 10.4327 2.81718C10.5678 3.49612 10.4985 4.19985 10.2336 4.83939C9.96867 5.47893 9.52007 6.02556 8.9445 6.41014C8.36892 6.79473 7.69223 7 7 7C6.07174 7 5.1815 6.63125 4.52513 5.97487C3.86875 5.3185 3.5 4.42826 3.5 3.5ZM5.5 3.5C5.5 3.79667 5.58797 4.08668 5.7528 4.33335C5.91762 4.58003 6.15189 4.77229 6.42597 4.88582C6.70006 4.99935 7.00166 5.02906 7.29264 4.97118C7.58361 4.9133 7.85088 4.77044 8.06066 4.56066C8.27044 4.35088 8.4133 4.08361 8.47118 3.79263C8.52906 3.50166 8.49935 3.20006 8.38582 2.92597C8.27229 2.65189 8.08003 2.41762 7.83335 2.25279C7.58668 2.08797 7.29667 2 7 2C6.60218 2 6.22064 2.15803 5.93934 2.43934C5.65804 2.72064 5.5 3.10217 5.5 3.5ZM14 13V15H0V13C0 13 0 9 7 9C14 9 14 13 14 13ZM12 13C11.86 12.22 10.67 11 7 11C3.33 11 2.07 12.31 2 13M13.95 9C14.5629 9.47673 15.064 10.0819 15.4182 10.7729C15.7723 11.4639 15.9709 12.2241 16 13V15H20V13C20 13 20 9.37 13.94 9H13.95Z" fill="#2A75BD"/>
</svg>
