<svg width="19" height="20" viewBox="0 0 19 20" fill="none" xmlns="http://www.w3.org/2000/svg">
<path d="M7.5 0.347667C7.62202 0.495933 7.69677 0.677382 7.71459 0.86857C7.73242 1.05976 7.6925 1.2519 7.6 1.42017C6.87732 2.74701 6.49992 4.23428 6.5025 5.74517C6.5025 10.7714 10.6 14.8414 15.65 14.8414C16.3088 14.8414 16.95 14.7727 17.5663 14.6414C17.7552 14.6005 17.9519 14.6162 18.132 14.6864C18.3121 14.7567 18.4675 14.8784 18.5788 15.0364C18.6962 15.2007 18.7561 15.3993 18.7491 15.6011C18.7421 15.803 18.6686 15.9969 18.54 16.1527C17.5596 17.357 16.3228 18.3273 14.9198 18.9929C13.5168 19.6585 11.9829 20.0026 10.43 20.0002C4.6675 20.0002 0 15.3577 0 9.63767C0 5.33267 2.6425 1.64017 6.405 0.0751671C6.59242 -0.00404305 6.80049 -0.0203006 6.99794 0.0288367C7.19539 0.077974 7.37156 0.189853 7.5 0.347667ZM6.0725 1.63892C4.62575 2.41495 3.4163 3.56847 2.57266 4.97687C1.72903 6.38527 1.28275 7.99593 1.28125 9.63767C1.28125 14.6627 5.38 18.7327 10.43 18.7327C11.6393 18.7348 12.837 18.497 13.9538 18.0331C15.0706 17.5692 16.0843 16.8884 16.9363 16.0302C16.515 16.0827 16.0863 16.1089 15.65 16.1089C9.8875 16.1089 5.22125 11.4664 5.22125 5.74642C5.22125 4.28767 5.52375 2.89892 6.0725 1.63892Z" fill="#A8DFFF"/>
</svg>
