<svg width="20" height="20" viewBox="0 0 20 20" fill="none" xmlns="http://www.w3.org/2000/svg">
<path d="M10 10.8333C11.3807 10.8333 12.5 9.71402 12.5 8.33331C12.5 6.9526 11.3807 5.83331 10 5.83331C8.61929 5.83331 7.5 6.9526 7.5 8.33331C7.5 9.71402 8.61929 10.8333 10 10.8333Z" stroke="#6AAC1D" stroke-width="1.5" stroke-linecap="round" stroke-linejoin="round"/>
<path d="M9.99992 1.66666C8.23181 1.66666 6.53612 2.36904 5.28587 3.61928C4.03563 4.86952 3.33325 6.56521 3.33325 8.33332C3.33325 9.90999 3.66825 10.9417 4.58325 12.0833L9.99992 18.3333L15.4166 12.0833C16.3316 10.9417 16.6666 9.90999 16.6666 8.33332C16.6666 6.56521 15.9642 4.86952 14.714 3.61928C13.4637 2.36904 11.768 1.66666 9.99992 1.66666V1.66666Z" stroke="#6AAC1D" stroke-width="1.5" stroke-linecap="round" stroke-linejoin="round"/>
</svg>
