<svg width="8" height="10" viewBox="0 0 8 10" fill="none" xmlns="http://www.w3.org/2000/svg">
<path fill-rule="evenodd" clip-rule="evenodd" d="M7.76548 5.23457C7.91564 5.38459 8 5.58804 8 5.80017C8 6.0123 7.91564 6.21575 7.76548 6.36577L4.56147 9.56577C4.41126 9.71575 4.20756 9.8 3.99516 9.8C3.78277 9.8 3.57907 9.71575 3.42886 9.56577L0.224851 6.36577C0.0789423 6.21489 -0.00179386 6.01281 3.05176e-05 5.80305C0.00185585 5.59329 0.0860963 5.39264 0.234608 5.24431C0.383121 5.09599 0.584022 5.01185 0.794042 5.01003C1.00406 5.00821 1.2064 5.08884 1.35747 5.23457L3.19416 7.06897L3.19416 1.00017C3.19416 0.787995 3.27855 0.584513 3.42877 0.434484C3.57899 0.284454 3.78273 0.200169 3.99516 0.200169C4.2076 0.200169 4.41134 0.284454 4.56156 0.434484C4.71177 0.584513 4.79617 0.787995 4.79617 1.00017L4.79617 7.06897L6.63286 5.23457C6.78307 5.08459 6.98677 5.00034 7.19917 5.00034C7.41157 5.00034 7.61527 5.08459 7.76548 5.23457Z" fill="#B91C1C"/>
</svg>
