<svg width="18" height="18" viewBox="0 0 18 18" fill="none" xmlns="http://www.w3.org/2000/svg">
<path d="M9 12C9.79565 12 10.5587 11.6839 11.1213 11.1213C11.6839 10.5587 12 9.79565 12 9C12 8.20435 11.6839 7.44129 11.1213 6.87868C10.5587 6.31607 9.79565 6 9 6C8.20435 6 7.44129 6.31607 6.87868 6.87868C6.31607 7.44129 6 8.20435 6 9C6 9.79565 6.31607 10.5587 6.87868 11.1213C7.44129 11.6839 8.20435 12 9 12V12Z" fill="#2A75BD"/>
<path fill-rule="evenodd" clip-rule="evenodd" d="M9 0C9.26522 0 9.51957 0.105357 9.70711 0.292893C9.89464 0.48043 10 0.734784 10 1V2.07C11.496 2.28623 12.8818 2.98059 13.9506 4.04939C15.0194 5.11818 15.7138 6.50405 15.93 8H17C17.2652 8 17.5196 8.10536 17.7071 8.29289C17.8946 8.48043 18 8.73478 18 9C18 9.26522 17.8946 9.51957 17.7071 9.70711C17.5196 9.89464 17.2652 10 17 10H15.93C15.7138 11.496 15.0194 12.8818 13.9506 13.9506C12.8818 15.0194 11.496 15.7138 10 15.93V17C10 17.2652 9.89464 17.5196 9.70711 17.7071C9.51957 17.8946 9.26522 18 9 18C8.73478 18 8.48043 17.8946 8.29289 17.7071C8.10536 17.5196 8 17.2652 8 17V15.93C6.50405 15.7138 5.11818 15.0194 4.04939 13.9506C2.98059 12.8818 2.28623 11.496 2.07 10H1C0.734784 10 0.48043 9.89464 0.292893 9.70711C0.105357 9.51957 0 9.26522 0 9C0 8.73478 0.105357 8.48043 0.292893 8.29289C0.48043 8.10536 0.734784 8 1 8H2.07C2.28638 6.50411 2.9808 5.11833 4.04956 4.04956C5.11833 2.9808 6.50411 2.28638 8 2.07V1C8 0.734784 8.10536 0.48043 8.29289 0.292893C8.48043 0.105357 8.73478 0 9 0ZM4 9C4 7.67392 4.52678 6.40215 5.46447 5.46447C6.40215 4.52678 7.67392 4 9 4C10.3261 4 11.5979 4.52678 12.5355 5.46447C13.4732 6.40215 14 7.67392 14 9C14 10.3261 13.4732 11.5979 12.5355 12.5355C11.5979 13.4732 10.3261 14 9 14C7.67392 14 6.40215 13.4732 5.46447 12.5355C4.52678 11.5979 4 10.3261 4 9Z" fill="#2A75BD"/>
</svg>
