<svg width="14" height="14" viewBox="0 0 14 14" fill="none" xmlns="http://www.w3.org/2000/svg">
<path d="M7.56569 0.834313C7.25327 0.521894 6.74674 0.521894 6.43432 0.834313L0.834321 6.43431C0.521901 6.74673 0.521901 7.25326 0.834321 7.56568C1.14674 7.8781 1.65327 7.8781 1.96569 7.56568L2.20001 7.33137V12.6C2.20001 13.0418 2.55818 13.4 3.00001 13.4H4.60001C5.04183 13.4 5.40001 13.0418 5.40001 12.6V11C5.40001 10.5582 5.75818 10.2 6.20001 10.2H7.80001C8.24183 10.2 8.60001 10.5582 8.60001 11V12.6C8.60001 13.0418 8.95818 13.4 9.40001 13.4H11C11.4418 13.4 11.8 13.0418 11.8 12.6V7.33137L12.0343 7.56568C12.3467 7.8781 12.8533 7.8781 13.1657 7.56568C13.4781 7.25326 13.4781 6.74673 13.1657 6.43431L7.56569 0.834313Z" fill="#C6C6C6"/>
</svg>
