<svg width="20" height="20" viewBox="0 0 20 20" fill="none" xmlns="http://www.w3.org/2000/svg">
<g clip-path="url(#clip0_15_734)">
<path d="M9.16667 19.125V17.4583C7.43056 17.2639 5.94111 16.5453 4.69833 15.3025C3.455 14.0592 2.73611 12.5694 2.54167 10.8333H0.875V9.16667H2.54167C2.73611 7.43056 3.455 5.94083 4.69833 4.6975C5.94111 3.45472 7.43056 2.73611 9.16667 2.54167V0.875H10.8333V2.54167C12.5694 2.73611 14.0592 3.45472 15.3025 4.6975C16.5453 5.94083 17.2639 7.43056 17.4583 9.16667H19.125V10.8333H17.4583C17.2639 12.5694 16.5453 14.0592 15.3025 15.3025C14.0592 16.5453 12.5694 17.2639 10.8333 17.4583V19.125H9.16667ZM10 15.8333C11.6111 15.8333 12.9861 15.2639 14.125 14.125C15.2639 12.9861 15.8333 11.6111 15.8333 10C15.8333 8.38889 15.2639 7.01389 14.125 5.875C12.9861 4.73611 11.6111 4.16667 10 4.16667C8.38889 4.16667 7.01389 4.73611 5.875 5.875C4.73611 7.01389 4.16667 8.38889 4.16667 10C4.16667 11.6111 4.73611 12.9861 5.875 14.125C7.01389 15.2639 8.38889 15.8333 10 15.8333ZM10 13.3333C9.08333 13.3333 8.29861 13.0069 7.64583 12.3542C6.99306 11.7014 6.66667 10.9167 6.66667 10C6.66667 9.08333 6.99306 8.29861 7.64583 7.64583C8.29861 6.99306 9.08333 6.66667 10 6.66667C10.9167 6.66667 11.7014 6.99306 12.3542 7.64583C13.0069 8.29861 13.3333 9.08333 13.3333 10C13.3333 10.9167 13.0069 11.7014 12.3542 12.3542C11.7014 13.0069 10.9167 13.3333 10 13.3333Z" fill="#6AAC1D"/>
</g>
<defs>
<clipPath id="clip0_15_734">
<rect width="20" height="20" fill="white"/>
</clipPath>
</defs>
</svg>
