<svg width="16" height="16" viewBox="0 0 16 16" fill="none" xmlns="http://www.w3.org/2000/svg">
<path d="M8 8.66669C9.10457 8.66669 10 7.77126 10 6.66669C10 5.56212 9.10457 4.66669 8 4.66669C6.89543 4.66669 6 5.56212 6 6.66669C6 7.77126 6.89543 8.66669 8 8.66669Z" stroke="#B91C1C" stroke-width="1.5" stroke-linecap="round" stroke-linejoin="round"/>
<path d="M7.99984 1.33334C6.58535 1.33334 5.2288 1.89525 4.2286 2.89544C3.22841 3.89563 2.6665 5.25219 2.6665 6.66668C2.6665 7.92801 2.9345 8.75334 3.6665 9.66668L7.99984 14.6667L12.3332 9.66668C13.0652 8.75334 13.3332 7.92801 13.3332 6.66668C13.3332 5.25219 12.7713 3.89563 11.7711 2.89544C10.7709 1.89525 9.41433 1.33334 7.99984 1.33334V1.33334Z" stroke="#B91C1C" stroke-width="1.5" stroke-linecap="round" stroke-linejoin="round"/>
</svg>
