<svg width="24" height="24" viewBox="0 0 24 24" fill="none" xmlns="http://www.w3.org/2000/svg">
<path d="M12.0001 21.325C13.2501 20.1417 14.2294 19.0043 14.9381 17.913C15.6461 16.821 16.0001 15.9 16.0001 15.15C16.0001 14 15.6084 13.0207 14.8251 12.212C14.0418 11.404 13.1001 11 12.0001 11C10.9001 11 9.95843 11.404 9.1751 12.212C8.39176 13.0207 8.0001 14 8.0001 15.15C8.0001 15.9 8.3541 16.821 9.0621 17.913C9.77076 19.0043 10.7501 20.1417 12.0001 21.325ZM12.0001 24C9.98343 22.2833 8.4791 20.6917 7.4871 19.225C6.49576 17.7583 6.0001 16.4 6.0001 15.15C6.0001 13.4333 6.58343 11.979 7.7501 10.787C8.91676 9.59567 10.3334 9 12.0001 9C13.6668 9 15.0834 9.59567 16.2501 10.787C17.4168 11.979 18.0001 13.4333 18.0001 15.15C18.0001 16.4 17.5041 17.7583 16.5121 19.225C15.5208 20.6917 14.0168 22.2833 12.0001 24ZM12.0001 16.5C12.4168 16.5 12.7708 16.354 13.0621 16.062C13.3541 15.7707 13.5001 15.4167 13.5001 15C13.5001 14.5833 13.3541 14.2293 13.0621 13.938C12.7708 13.646 12.4168 13.5 12.0001 13.5C11.5834 13.5 11.2294 13.646 10.9381 13.938C10.6461 14.2293 10.5001 14.5833 10.5001 15C10.5001 15.4167 10.6461 15.7707 10.9381 16.062C11.2294 16.354 11.5834 16.5 12.0001 16.5ZM8.4501 7.45L7.0501 6.05C7.71676 5.38333 8.47076 4.875 9.3121 4.525C10.1541 4.175 11.0501 4 12.0001 4C12.9501 4 13.8461 4.175 14.6881 4.525C15.5294 4.875 16.2834 5.38333 16.9501 6.05L15.5501 7.45C15.0834 6.98333 14.5461 6.625 13.9381 6.375C13.3294 6.125 12.6834 6 12.0001 6C11.3168 6 10.6708 6.125 10.0621 6.375C9.4541 6.625 8.91676 6.98333 8.4501 7.45ZM5.6501 4.625L4.2251 3.225C5.2751 2.175 6.46676 1.375 7.8001 0.825C9.13343 0.275 10.5334 0 12.0001 0C13.4668 0 14.8668 0.275 16.2001 0.825C17.5334 1.375 18.7251 2.175 19.7751 3.225L18.3751 4.65C17.5251 3.8 16.5501 3.146 15.4501 2.688C14.3501 2.22933 13.2001 2 12.0001 2C10.8001 2 9.6541 2.225 8.5621 2.675C7.47076 3.125 6.5001 3.775 5.6501 4.625Z" fill="#A3CCBF"/>
</svg>
