<svg width="14" height="18" viewBox="0 0 14 18" fill="none" xmlns="http://www.w3.org/2000/svg">
<path d="M10.1251 4C10.1251 4.8288 9.7959 5.62366 9.20985 6.20971C8.6238 6.79576 7.82895 7.125 7.00014 7.125C6.17134 7.125 5.37649 6.79576 4.79043 6.20971C4.20438 5.62366 3.87514 4.8288 3.87514 4C3.87514 3.1712 4.20438 2.37634 4.79043 1.79029C5.37649 1.20424 6.17134 0.875 7.00014 0.875C7.82895 0.875 8.6238 1.20424 9.20985 1.79029C9.7959 2.37634 10.1251 3.1712 10.1251 4V4ZM0.750977 15.765C0.777756 14.1253 1.44792 12.5618 2.61696 11.4117C3.78599 10.2616 5.36022 9.61706 7.00014 9.61706C8.64007 9.61706 10.2143 10.2616 11.3833 11.4117C12.5524 12.5618 13.2225 14.1253 13.2493 15.765C11.2888 16.664 9.15693 17.1279 7.00014 17.125C4.77014 17.125 2.65348 16.6383 0.750977 15.765Z" stroke="#A8DFFF" stroke-width="1.5" stroke-linecap="round" stroke-linejoin="round"/>
</svg>
