<svg width="20" height="20" viewBox="0 0 20 20" fill="none" xmlns="http://www.w3.org/2000/svg">
<path d="M19.295 12C19.388 11.9999 19.48 12.0181 19.5659 12.0538C19.6518 12.0894 19.7297 12.1417 19.7952 12.2076C19.8608 12.2735 19.9126 12.3518 19.9478 12.4378C19.9829 12.5239 20.0007 12.616 20 12.709V15.913C20.0007 16.0055 19.9831 16.0973 19.9482 16.183C19.9134 16.2688 19.862 16.3468 19.797 16.4126C19.732 16.4785 19.6546 16.5309 19.5694 16.5668C19.4841 16.6027 19.3926 16.6215 19.3 16.622C19.2075 16.6215 19.116 16.6027 19.0307 16.5668C18.9454 16.5309 18.868 16.4785 18.803 16.4126C18.738 16.3468 18.6866 16.2688 18.6518 16.183C18.6169 16.0973 18.5994 16.0055 18.6 15.913V14.788C16.779 17.844 13.399 20 9.75702 20C5.34702 20 1.65102 17.279 0.0480178 13.085C-0.0192879 12.9103 -0.0150476 12.716 0.0598204 12.5444C0.134688 12.3728 0.274156 12.2375 0.448018 12.168C0.808018 12.027 1.21402 12.208 1.35402 12.573C2.75402 16.235 5.94202 18.583 9.75702 18.583C13.128 18.583 16.277 16.401 17.744 13.429L16.273 13.439C16.1805 13.4391 16.0888 13.421 16.0033 13.3857C15.9178 13.3504 15.84 13.2985 15.7746 13.2332C15.7091 13.1678 15.6571 13.0901 15.6217 13.0046C15.5863 12.9192 15.568 12.8275 15.568 12.735C15.5656 12.5482 15.6375 12.3681 15.7678 12.2342C15.8981 12.1003 16.0762 12.0236 16.263 12.021L19.295 12ZM10.245 0C14.653 0 18.35 2.721 19.953 6.915C20.0203 7.08974 20.0161 7.28396 19.9412 7.45559C19.8663 7.62723 19.7269 7.76246 19.553 7.832C19.467 7.86555 19.3752 7.88167 19.2829 7.87943C19.1906 7.87719 19.0996 7.85663 19.0153 7.81895C18.931 7.78127 18.8551 7.72722 18.7918 7.65993C18.7286 7.59265 18.6794 7.51347 18.647 7.427C17.247 3.765 14.059 1.417 10.244 1.417C6.87302 1.417 3.72402 3.599 2.25702 6.571L3.72802 6.561C3.82055 6.56087 3.91221 6.57898 3.99773 6.6143C4.08326 6.64962 4.16099 6.70146 4.22647 6.76684C4.29195 6.83223 4.34389 6.90988 4.37933 6.99536C4.41478 7.08084 4.43302 7.17246 4.43302 7.265C4.43542 7.45181 4.36358 7.63194 4.23326 7.76581C4.10295 7.89969 3.92483 7.97637 3.73802 7.979L0.705018 8C0.612061 8.00013 0.519998 7.98186 0.434141 7.94623C0.348285 7.91059 0.270335 7.85831 0.204791 7.79239C0.139246 7.72648 0.0874051 7.64823 0.0522589 7.56218C0.0171127 7.47612 -0.000642541 7.38395 1.77626e-05 7.291V4.087C1.77626e-05 3.695 0.313018 3.378 0.700018 3.378C1.08602 3.378 1.40002 3.695 1.40002 4.087V5.212C3.22102 2.156 6.60102 0 10.243 0H10.245Z" fill="#A8DFFF"/>
</svg>
