<svg width="8" height="10" viewBox="0 0 8 10" fill="none" xmlns="http://www.w3.org/2000/svg">
<path fill-rule="evenodd" clip-rule="evenodd" d="M0.234522 4.76543C0.0843579 4.61541 0 4.41196 0 4.19983C0 3.9877 0.0843579 3.78425 0.234522 3.63423L3.43853 0.43423C3.58874 0.284253 3.79244 0.200001 4.00484 0.200001C4.21723 0.200001 4.42093 0.284253 4.57114 0.43423L7.77515 3.63423C7.92106 3.78511 8.00179 3.98719 7.99997 4.19695C7.99814 4.40671 7.9139 4.60736 7.76539 4.75569C7.61688 4.90401 7.41598 4.98815 7.20596 4.98997C6.99594 4.99179 6.7936 4.91116 6.64253 4.76543L4.80584 2.93103V8.99983C4.80584 9.212 4.72145 9.41549 4.57123 9.56552C4.42101 9.71555 4.21727 9.79983 4.00484 9.79983C3.7924 9.79983 3.58866 9.71555 3.43844 9.56552C3.28823 9.41549 3.20383 9.212 3.20383 8.99983V2.93103L1.36714 4.76543C1.21693 4.91541 1.01323 4.99966 0.80083 4.99966C0.588433 4.99966 0.384732 4.91541 0.234522 4.76543V4.76543Z" fill="#059669"/>
</svg>
