<svg width="24" height="24" viewBox="0 0 24 24" fill="none" xmlns="http://www.w3.org/2000/svg">
<path d="M22.0035 13.4505L16.2045 11.3663L13.7805 8.32275C13.5697 8.06505 13.3042 7.85752 13.0033 7.71521C12.7023 7.5729 12.3734 7.49938 12.0405 7.5H6.0435C5.67673 7.49988 5.31549 7.58948 4.99129 7.76099C4.66709 7.9325 4.38977 8.18072 4.1835 8.484L2.1495 11.4713C1.72587 12.093 1.49952 12.8279 1.5 13.5802V19.5C1.5 19.6989 1.57902 19.8897 1.71967 20.0303C1.86032 20.171 2.05109 20.25 2.25 20.25H3.8565C4.01965 20.8937 4.39277 21.4646 4.91683 21.8724C5.44089 22.2802 6.08597 22.5016 6.75 22.5016C7.41403 22.5016 8.05911 22.2802 8.58317 21.8724C9.10723 21.4646 9.48035 20.8937 9.6435 20.25H14.3565C14.5197 20.8937 14.8928 21.4646 15.4168 21.8724C15.9409 22.2802 16.586 22.5016 17.25 22.5016C17.914 22.5016 18.5591 22.2802 19.0832 21.8724C19.6072 21.4646 19.9804 20.8937 20.1435 20.25H21.75C21.9489 20.25 22.1397 20.171 22.2803 20.0303C22.421 19.8897 22.5 19.6989 22.5 19.5V14.1562C22.5 14.0018 22.4523 13.8511 22.3634 13.7248C22.2745 13.5985 22.1489 13.5027 22.0035 13.4505ZM6.75 21C6.45333 21 6.16332 20.912 5.91665 20.7472C5.66997 20.5824 5.47771 20.3481 5.36418 20.074C5.25065 19.7999 5.22094 19.4983 5.27882 19.2074C5.3367 18.9164 5.47956 18.6491 5.68934 18.4393C5.89912 18.2296 6.16639 18.0867 6.45737 18.0288C6.74834 17.9709 7.04994 18.0006 7.32403 18.1142C7.59811 18.2277 7.83238 18.42 7.9972 18.6666C8.16203 18.9133 8.25 19.2033 8.25 19.5C8.24941 19.8976 8.09118 20.2788 7.81 20.56C7.52883 20.8412 7.14764 20.9994 6.75 21ZM17.25 21C16.9533 21 16.6633 20.912 16.4166 20.7472C16.17 20.5824 15.9777 20.3481 15.8642 20.074C15.7507 19.7999 15.7209 19.4983 15.7788 19.2074C15.8367 18.9164 15.9796 18.6491 16.1893 18.4393C16.3991 18.2296 16.6664 18.0867 16.9574 18.0288C17.2483 17.9709 17.5499 18.0006 17.824 18.1142C18.0981 18.2277 18.3324 18.42 18.4972 18.6666C18.662 18.9133 18.75 19.2033 18.75 19.5C18.7496 19.8977 18.5914 20.279 18.3102 20.5602C18.029 20.8414 17.6477 20.9996 17.25 21ZM21 18.75H20.1435C19.9804 18.1063 19.6072 17.5354 19.0832 17.1276C18.5591 16.7198 17.914 16.4984 17.25 16.4984C16.586 16.4984 15.9409 16.7198 15.4168 17.1276C14.8928 17.5354 14.5197 18.1063 14.3565 18.75H9.6435C9.48035 18.1063 9.10723 17.5354 8.58317 17.1276C8.05911 16.7198 7.41403 16.4984 6.75 16.4984C6.08597 16.4984 5.44089 16.7198 4.91683 17.1276C4.39277 17.5354 4.01965 18.1063 3.8565 18.75H3V13.5802C2.99992 13.1287 3.13582 12.6875 3.39 12.3143L5.42325 9.3285C5.492 9.22731 5.58447 9.14448 5.69258 9.08722C5.80069 9.02996 5.92116 9.00002 6.0435 9H12.0405C12.1496 8.99957 12.2575 9.02313 12.3565 9.06901C12.4556 9.11489 12.5433 9.18197 12.6135 9.2655L15.1635 12.4672C15.2502 12.5761 15.3655 12.6587 15.4965 12.7057L21 14.6835V18.75ZM18.75 8.25H17.25C17.2496 7.8523 17.0914 7.471 16.8102 7.18978C16.529 6.90856 16.1477 6.7504 15.75 6.75V5.25C16.5453 5.25099 17.3078 5.56738 17.8702 6.12978C18.4326 6.69217 18.749 7.45466 18.75 8.25Z" fill="#2A75BD"/>
<path d="M21.75 8.25H20.25C20.2486 7.05695 19.7741 5.91317 18.9304 5.06955C18.0868 4.22594 16.943 3.75139 15.75 3.75V2.25C17.3407 2.25198 18.8657 2.88476 19.9904 4.00955C21.1152 5.13434 21.748 6.65931 21.75 8.25Z" fill="#2A75BD"/>
</svg>
